<?xml version="1.0" standalone="no"?>
<!DOCTYPE svg PUBLIC "-//W3C//DTD SVG 20010904//EN"
 "http://www.w3.org/TR/2001/REC-SVG-20010904/DTD/svg10.dtd">
<svg version="1.0" xmlns="http://www.w3.org/2000/svg"
 width="364.000000pt" height="364.000000pt" viewBox="0 0 364.000000 364.000000"
 preserveAspectRatio="xMidYMid meet">
<metadata>
Created by potrace 1.11, written by Peter Selinger 2001-2013
</metadata>
<g transform="translate(0.000000,364.000000) scale(0.100000,-0.100000)"
fill="#000000" stroke="none">
<path d="M1403 3606 c-7 -8 -36 -17 -65 -21 -31 -4 -66 -17 -84 -31 -18 -13
-51 -28 -74 -33 -23 -5 -56 -23 -74 -39 -17 -16 -47 -35 -66 -42 -19 -7 -42
-19 -50 -26 -8 -6 -33 -19 -54 -28 -49 -20 -96 -71 -96 -104 0 -23 -60 -92
-79 -92 -5 0 -14 -15 -22 -32 -7 -18 -23 -46 -36 -61 -15 -19 -23 -42 -23 -66
0 -20 -7 -46 -15 -57 -8 -10 -15 -26 -15 -34 0 -9 -27 -42 -60 -75 l-59 -59 0
-87 c0 -49 -4 -96 -9 -106 -6 -11 -6 -38 -1 -68 4 -27 8 -87 8 -133 1 -46 5
-91 10 -101 5 -9 17 -84 26 -166 9 -83 23 -163 31 -179 8 -16 14 -36 14 -46 0
-9 4 -20 9 -26 18 -19 51 -85 51 -103 0 -10 8 -29 19 -42 10 -13 26 -40 36
-59 10 -18 24 -40 31 -48 18 -18 18 -22 -8 -79 -28 -63 -27 -61 -16 -124 6
-33 19 -64 33 -79 16 -16 26 -43 31 -78 6 -44 10 -53 31 -58 13 -4 27 -4 30
-1 10 10 7 126 -6 240 -13 112 -10 157 12 157 18 0 33 -42 56 -150 32 -153 60
-203 143 -256 39 -25 185 -64 238 -64 23 0 28 -4 27 -20 -1 -11 -5 -20 -9 -20
-4 0 -5 -6 -2 -14 5 -14 -2 -23 -50 -63 -14 -13 -26 -29 -26 -36 0 -16 -50
-65 -82 -81 -20 -10 -23 -18 -22 -69 2 -51 6 -62 39 -98 20 -23 43 -55 51 -73
7 -17 21 -40 29 -51 15 -18 17 -19 43 -3 33 20 40 53 17 78 -19 21 -14 50 7
50 18 0 155 -27 203 -39 71 -19 84 -10 43 31 -21 21 -21 21 -2 35 14 10 32 12
64 7 25 -4 74 -8 110 -9 36 -1 77 -7 91 -12 16 -7 31 -8 40 -2 8 5 37 8 65 7
28 0 56 2 62 6 6 4 34 4 62 0 49 -6 50 -7 34 -25 -9 -11 -23 -19 -30 -19 -8 0
-21 -11 -30 -25 -12 -19 -22 -24 -37 -19 -21 7 -37 -9 -37 -38 0 -11 5 -15 15
-12 10 4 15 0 15 -15 0 -17 -4 -20 -23 -16 -15 4 -28 1 -36 -9 -8 -9 -20 -16
-27 -16 -8 0 -14 -6 -14 -12 0 -7 -9 -2 -19 11 -17 23 -19 23 -42 7 -13 -9
-38 -16 -56 -16 -17 0 -35 -4 -38 -10 -3 -5 -1 -10 4 -10 6 0 11 -12 11 -27 0
-16 4 -33 8 -39 10 -15 173 -38 213 -30 19 4 58 10 88 14 30 4 56 13 59 20 2
6 -3 12 -12 12 -25 0 -30 22 -9 39 11 9 18 22 15 29 -2 6 4 12 12 12 18 0 96
46 111 66 6 7 27 20 47 29 35 14 37 14 43 -6 4 -11 1 -27 -7 -37 -7 -9 -18
-23 -25 -32 -7 -8 -26 -35 -44 -59 -20 -28 -34 -40 -38 -32 -12 18 -38 2 -44
-25 -5 -30 13 -74 31 -74 6 0 12 5 12 10 0 6 23 10 50 10 38 0 50 -4 50 -15 0
-8 7 -15 16 -15 15 0 15 -2 1 -23 -8 -13 -16 -31 -18 -41 -4 -17 -93 -56 -128
-56 -8 0 -29 -11 -46 -24 -18 -14 -41 -25 -51 -25 -36 0 -59 -7 -92 -24 -34
-19 -52 -16 -52 9 0 21 -78 23 -91 2 -4 -6 -14 -8 -23 -5 -9 4 -16 2 -16 -3 0
-5 -18 -15 -40 -21 -22 -7 -40 -18 -40 -26 0 -11 -8 -13 -27 -9 -16 4 -54 11
-85 16 -73 11 -86 19 -148 84 -29 31 -64 58 -80 61 -15 3 -36 14 -46 24 -11 9
-27 20 -36 24 -10 3 -18 11 -18 17 0 5 -7 10 -15 10 -8 0 -15 8 -15 19 0 14
-6 17 -24 14 -21 -4 -24 -2 -19 17 4 16 0 23 -15 26 -13 4 -18 12 -15 25 7 25
23 24 23 -1 0 -11 7 -20 15 -20 8 0 15 5 15 11 0 5 4 8 10 4 5 -3 7 -12 3 -20
-7 -19 11 -19 26 -1 9 11 9 20 -1 38 -7 13 -16 25 -19 28 -4 3 -9 15 -13 26
-12 40 -41 35 -81 -13 l-37 -44 24 -25 c13 -14 30 -33 39 -42 9 -9 28 -36 42
-59 15 -23 38 -50 52 -60 14 -10 46 -37 71 -60 25 -24 52 -43 60 -43 8 0 14
-4 14 -8 0 -5 12 -15 27 -23 14 -8 39 -26 56 -41 16 -16 37 -28 47 -28 11 0
21 -4 24 -9 13 -21 100 -51 177 -61 117 -16 220 -2 334 45 183 74 255 108 276
131 11 12 33 28 47 34 30 13 90 84 142 169 45 74 75 111 89 111 6 0 29 37 52
83 22 45 46 89 54 97 23 26 45 78 45 105 0 14 4 25 10 25 5 0 8 43 6 105 -2
58 1 105 5 105 5 0 9 -6 10 -12 0 -7 5 -3 11 10 6 12 17 22 25 22 7 0 13 9 13
20 0 11 -5 20 -11 20 -19 0 -5 45 18 55 23 10 43 44 43 75 0 21 -15 27 -25 10
-9 -15 -25 -12 -25 5 0 8 11 17 25 21 23 6 25 11 25 59 0 38 4 55 15 59 8 3
15 12 15 19 0 8 6 20 13 26 14 11 41 82 42 111 0 8 8 32 18 54 18 40 21 98 9
175 -8 48 -22 60 -44 37 -13 -12 -16 -12 -26 4 -13 21 -3 67 23 106 8 13 15
38 15 56 0 19 7 44 16 57 12 17 17 50 19 120 1 53 6 119 10 146 15 92 3 311
-20 380 -18 56 -26 102 -18 120 3 9 23 25 44 35 41 22 59 46 59 80 0 19 -4 22
-30 18 l-30 -5 0 54 c0 30 7 69 15 89 14 34 11 64 -6 64 -5 0 -9 -7 -9 -15 0
-8 -7 -15 -16 -15 -10 0 -14 6 -10 18 13 44 18 76 11 70 -5 -4 -14 -3 -22 3
-9 9 -21 8 -44 -1 -26 -11 -33 -11 -47 3 -15 16 -14 19 13 47 24 25 27 34 19
48 -17 27 -55 42 -105 42 -81 0 -107 9 -129 47 -12 20 -24 33 -27 29 -4 -3
-15 1 -25 11 -16 14 -18 15 -18 0 0 -29 -19 -28 -35 2 -19 37 -19 45 0 37 8
-3 15 -1 15 4 0 5 -24 17 -54 25 -30 9 -60 22 -66 30 -7 8 -28 15 -46 15 -19
0 -34 4 -34 9 0 21 -181 44 -208 27 -49 -31 -317 -42 -369 -15 -16 8 -31 18
-34 22 -3 5 -25 11 -48 14 -30 4 -46 1 -60 -11 -15 -14 -30 -15 -110 -7 -50 6
-106 17 -123 25 -38 19 -69 20 -85 2z m1167 -136 c0 -5 -4 -10 -10 -10 -5 0
-10 5 -10 10 0 6 5 10 10 10 6 0 10 -4 10 -10z m-80 -55 c0 -8 -4 -15 -9 -15
-13 0 -22 16 -14 24 11 11 23 6 23 -9z m430 -140 c0 -23 -36 -55 -61 -55 -36
0 -36 8 -1 37 24 20 62 31 62 18z m-1004 -742 c-1 -13 5 -17 23 -15 14 1 28
-3 32 -10 5 -8 13 -8 31 3 47 30 131 18 99 -14 -9 -9 -14 -8 -21 3 -5 8 -10
10 -10 4 0 -24 27 -33 87 -28 57 5 64 3 84 -20 13 -14 33 -26 46 -26 13 0 23
-5 23 -10 0 -19 48 -30 77 -19 45 17 106 -24 95 -64 -4 -15 -1 -19 10 -14 24
9 30 -4 14 -28 -18 -27 -5 -108 24 -147 11 -15 23 -41 26 -57 4 -16 14 -31 24
-34 13 -3 16 -11 12 -32 -3 -18 -1 -26 6 -21 14 8 42 -21 42 -43 0 -10 11 -27
25 -37 14 -11 25 -29 25 -42 0 -13 4 -21 9 -18 5 3 11 -4 15 -17 5 -18 8 -20
16 -7 9 13 11 13 20 0 18 -27 4 -35 -67 -38 -73 -3 -97 9 -98 47 0 9 -10 17
-25 19 -13 2 -31 12 -40 22 -11 13 -28 17 -70 15 -30 -1 -55 -3 -55 -5 0 -1
-29 -3 -65 -4 -36 -1 -90 -7 -120 -14 -30 -6 -62 -11 -70 -11 -27 0 -90 -19
-105 -31 -11 -10 -18 -10 -29 -1 -11 9 -23 3 -61 -33 -39 -38 -50 -44 -70 -36
-27 10 -65 2 -65 -14 0 -6 -4 -5 -9 3 -8 12 -14 12 -40 1 -27 -11 -37 -10 -71
5 -22 10 -40 23 -40 29 0 6 -4 6 -11 -1 -8 -8 -21 -8 -49 2 -31 11 -250 33
-272 27 -4 -1 -22 -3 -40 -4 -18 -1 -43 -8 -54 -15 -12 -8 -59 -16 -105 -19
-46 -3 -99 -12 -118 -20 -100 -42 -172 11 -110 81 10 11 23 39 31 63 7 23 21
45 30 48 19 6 22 19 19 72 -3 44 52 106 87 97 17 -4 34 3 62 25 25 20 44 28
56 23 12 -4 15 -3 10 5 -4 7 4 16 21 23 15 6 37 16 48 21 11 5 34 10 50 11 30
2 43 15 67 70 7 15 18 27 25 27 7 0 13 5 13 10 0 6 7 10 16 10 13 0 15 7 10
35 -4 22 -3 35 4 35 5 0 10 -7 10 -15 0 -8 4 -15 9 -15 5 0 14 7 21 15 7 8 18
15 25 15 8 0 23 12 34 26 17 21 24 24 35 15 12 -10 20 -9 40 4 14 10 26 21 26
25 0 9 96 24 148 23 17 -1 35 3 38 8 3 5 18 9 35 9 16 0 29 5 29 10 0 6 6 10
14 10 8 0 13 -8 12 -17z m614 -273 c0 -5 -5 -10 -11 -10 -5 0 -7 5 -4 10 3 6
8 10 11 10 2 0 4 -4 4 -10z m41 -521 c37 -11 37 -12 22 -35 -19 -30 -24 -30
-86 2 -28 14 -67 29 -86 34 -31 7 -25 8 38 9 40 1 91 -4 112 -10z m404 -45
c17 -40 20 -74 7 -74 -5 0 -21 14 -36 31 -26 29 -27 32 -11 55 8 13 18 24 20
24 3 0 12 -16 20 -36z m-1677 20 c47 -5 61 -11 65 -25 6 -24 -3 -30 -56 -35
-140 -15 -226 -52 -240 -103 -4 -18 -6 -35 -3 -38 2 -3 29 1 58 7 87 20 198
-12 198 -57 0 -8 -12 -13 -34 -13 -54 0 -96 -11 -96 -27 0 -20 13 -23 135 -26
l110 -4 66 39 c36 21 71 38 77 38 7 0 12 5 12 10 0 6 6 10 13 10 7 0 21 16 31
35 20 37 36 46 36 20 0 -8 -4 -15 -10 -15 -5 0 -10 -9 -10 -20 0 -12 -9 -38
-20 -60 -20 -40 -28 -106 -11 -96 23 14 -5 -36 -39 -72 -64 -66 -129 -85 -291
-85 -124 0 -141 2 -185 24 -68 34 -118 109 -134 204 -16 97 -11 147 18 160 12
5 22 15 22 22 0 7 7 13 15 13 18 0 18 1 5 34 -8 22 -6 27 12 37 53 28 133 35
256 23z m-491 -36 c-3 -8 -6 -5 -6 6 -1 11 2 17 5 13 3 -3 4 -12 1 -19z m627
-3 c-4 -8 -10 -15 -15 -15 -5 0 -9 7 -9 15 0 8 7 15 15 15 9 0 12 -6 9 -15z
m1256 -132 c0 -95 -32 -194 -77 -239 -67 -67 -108 -79 -273 -79 -117 0 -153 3
-184 18 -53 24 -42 29 24 12 30 -8 61 -15 68 -15 26 0 6 22 -31 35 -21 7 -49
25 -62 40 -19 19 -31 25 -48 20 -17 -5 -19 -4 -7 4 8 6 11 11 6 11 -5 0 -3 6
3 14 8 10 9 16 1 21 -5 3 -10 10 -10 16 0 10 80 1 93 -11 5 -4 21 -4 35 1 15
5 66 14 115 20 48 6 90 15 93 20 3 5 15 9 28 9 12 0 37 15 56 35 25 26 42 35
67 35 25 0 31 4 27 15 -4 10 0 15 15 15 22 0 25 4 35 53 11 48 26 19 26 -50z
m115 45 c4 4 4 -24 -1 -63 -4 -38 -8 -87 -8 -107 1 -28 -4 -38 -15 -38 -11 0
-12 -3 -5 -8 27 -17 51 -222 33 -283 -13 -42 -13 -43 -17 -14 -2 17 -8 34 -13
39 -5 6 -9 20 -9 32 0 30 -20 41 -35 21 -7 -10 -20 -17 -29 -17 -9 0 -16 -3
-16 -7 0 -8 -13 -10 -87 -16 -17 -1 -44 -12 -59 -24 -16 -13 -41 -23 -56 -23
-35 0 -97 31 -98 48 0 22 27 42 57 42 15 1 42 9 59 18 18 9 48 25 68 36 41 21
131 137 141 181 4 17 11 41 15 55 5 14 11 47 14 74 4 50 21 72 42 56 6 -6 14
-6 19 -2z m-956 -55 c22 -19 111 -185 111 -207 0 -8 7 -19 15 -26 9 -7 13 -15
10 -18 -7 -7 67 -72 83 -72 41 0 89 -63 77 -101 -8 -23 -72 -46 -88 -30 -6 6
-21 11 -33 11 -34 0 -105 -42 -115 -68 -8 -20 -14 -22 -42 -17 -24 5 -39 2
-49 -9 -15 -14 -19 -13 -50 8 -40 27 -103 42 -113 26 -9 -14 17 -70 32 -70 16
0 17 -12 1 -28 -9 -9 -7 -13 8 -18 10 -3 32 -11 48 -17 33 -12 170 -11 255 1
31 5 70 8 86 6 17 -1 35 -3 42 -3 7 -1 17 -10 23 -21 11 -20 8 -21 -77 -21
-98 0 -141 -3 -163 -12 -28 -10 -95 -19 -130 -16 -54 5 -223 3 -240 -3 -69
-23 -180 -15 -180 14 0 6 -6 6 -15 -2 -13 -11 -15 -8 -15 13 0 18 12 36 40 58
31 25 38 37 34 54 -4 16 6 35 37 71 23 27 46 49 51 49 15 0 27 29 22 51 -4 15
2 27 23 43 15 11 33 25 40 31 7 5 15 10 18 10 25 0 101 126 160 266 14 36 41
61 66 63 4 1 16 -7 28 -16z m248 -250 c-8 -7 -57 43 -57 59 0 5 14 -5 32 -21
18 -17 29 -33 25 -38z m-17 -638 c0 -8 -4 -15 -10 -15 -5 0 -7 7 -4 15 4 8 8
15 10 15 2 0 4 -7 4 -15z m342 -127 c-7 -7 -12 -8 -12 -2 0 14 12 26 19 19 2
-3 -1 -11 -7 -17z"/>
<path d="M2760 1480 c0 -5 5 -10 10 -10 6 0 10 5 10 10 0 6 -4 10 -10 10 -5 0
-10 -4 -10 -10z"/>
<path d="M2425 1130 c-3 -5 1 -10 9 -10 9 0 16 5 16 10 0 6 -4 10 -9 10 -6 0
-13 -4 -16 -10z"/>
<path d="M647 1713 c-7 -12 15 -123 24 -123 8 0 12 11 24 64 8 37 -32 86 -48
59z"/>
<path d="M975 933 c4 -10 10 -28 12 -40 3 -13 9 -23 14 -23 5 0 9 -7 9 -16 0
-13 3 -13 29 2 30 18 31 27 1 72 -19 28 -77 33 -65 5z"/>
<path d="M1834 638 c3 -21 8 -23 52 -19 52 3 64 7 64 20 0 5 -20 6 -44 4 -26
-3 -46 -1 -50 6 -12 19 -26 12 -22 -11z"/>
</g>
</svg>
