<?xml version="1.0" standalone="no"?>
<!DOCTYPE svg PUBLIC "-//W3C//DTD SVG 20010904//EN"
 "http://www.w3.org/TR/2001/REC-SVG-20010904/DTD/svg10.dtd">
<svg version="1.0" xmlns="http://www.w3.org/2000/svg"
 width="359.000000pt" height="359.000000pt" viewBox="0 0 359.000000 359.000000"
 preserveAspectRatio="xMidYMid meet">
<metadata>
Created by potrace 1.11, written by Peter Selinger 2001-2013
</metadata>
<g transform="translate(0.000000,359.000000) scale(0.100000,-0.100000)"
fill="#000000" stroke="none">
<path d="M1415 3537 c-44 -4 -109 -17 -144 -27 -35 -11 -74 -20 -88 -20 -33 0
-133 -44 -201 -89 -38 -24 -63 -52 -88 -93 -19 -33 -34 -63 -34 -67 0 -4 -12
-18 -26 -32 -14 -13 -51 -73 -81 -133 -30 -61 -72 -130 -93 -155 -51 -63 -58
-77 -65 -151 -3 -36 -13 -99 -22 -141 -19 -97 -6 -278 31 -420 26 -98 47 -235
51 -324 3 -77 16 -129 37 -143 10 -7 18 -19 18 -26 0 -7 11 -30 25 -50 27 -40
31 -66 14 -98 -13 -24 -20 -86 -10 -92 4 -3 6 -24 5 -48 -2 -32 4 -49 22 -71
21 -25 30 -62 25 -103 -1 -12 39 -27 48 -18 3 3 4 37 3 77 -10 249 -7 312 10
315 22 4 40 -40 57 -138 15 -92 45 -175 76 -216 51 -66 169 -111 305 -115 76
-2 110 -8 110 -19 0 -4 -9 -10 -20 -13 -11 -3 -24 -16 -30 -29 -26 -58 -61
-105 -99 -131 -22 -16 -41 -33 -41 -38 0 -5 -6 -9 -13 -9 -7 0 -21 -14 -31
-30 -20 -34 -15 -100 9 -120 7 -6 28 -35 46 -65 39 -62 69 -73 69 -25 0 17 -4
30 -10 30 -15 0 -12 48 4 57 12 7 12 17 4 56 -11 47 -11 48 22 77 19 17 40 30
47 30 7 0 13 11 13 25 0 14 11 43 25 65 14 22 25 48 25 58 0 10 16 36 35 58
19 21 35 42 35 46 0 4 18 12 41 18 23 6 55 26 74 45 37 39 106 159 125 220 17
54 47 85 82 85 33 0 41 -12 128 -179 53 -101 59 -108 125 -152 49 -33 71 -54
77 -75 16 -59 -42 -95 -132 -80 -36 6 -42 3 -84 -38 -36 -34 -51 -42 -71 -38
-18 3 -31 -2 -45 -18 -19 -22 -50 -22 -50 0 0 6 -5 8 -11 5 -6 -4 -8 -13 -5
-21 3 -8 -1 -14 -10 -14 -22 0 -12 -23 17 -38 26 -13 97 -10 247 10 62 8 79
14 67 21 -15 8 -12 12 16 25 19 9 49 31 67 50 17 19 32 30 32 24 0 -5 9 -12
21 -15 21 -6 21 -34 0 -29 -6 1 -11 -2 -11 -8 0 -5 9 -10 19 -10 23 0 37 -16
19 -23 -7 -2 2 -7 21 -12 42 -9 23 -25 -31 -25 -20 0 -40 -4 -43 -10 -3 -5 1
-10 9 -10 9 0 16 -7 16 -15 0 -9 -9 -15 -22 -15 -92 -2 -216 -14 -233 -23 -30
-17 -163 -23 -305 -14 -47 3 -89 2 -95 -1 -12 -8 -44 -11 -144 -14 -44 -2 -82
-6 -85 -9 -13 -13 58 -50 107 -56 28 -3 57 -9 62 -14 6 -4 31 -11 55 -15 l45
-7 -23 26 c-13 14 -22 33 -20 43 3 15 13 17 73 15 38 -1 76 -6 84 -11 8 -4 24
-3 36 2 16 7 35 5 69 -6 34 -12 52 -13 66 -6 11 6 41 10 67 10 27 0 76 1 110
2 38 2 63 -1 63 -7 -1 -17 -27 -45 -42 -45 -19 0 -42 -26 -34 -38 8 -13 163
-7 180 7 7 6 27 12 44 14 18 2 41 12 51 21 19 17 21 17 45 -1 14 -10 26 -26
26 -36 0 -25 42 -42 69 -28 15 9 21 21 21 47 0 38 15 74 30 74 6 0 10 -11 10
-25 0 -14 5 -25 10 -25 6 0 10 -7 10 -15 0 -8 -4 -15 -10 -15 -5 0 -7 -7 -3
-15 7 -19 -23 -44 -54 -45 -28 0 -29 -11 -3 -28 24 -15 27 -59 6 -88 -8 -10
-12 -29 -9 -41 3 -14 1 -23 -6 -23 -6 0 -11 -6 -11 -14 0 -7 -7 -19 -15 -26
-9 -7 -13 -20 -10 -27 5 -15 -31 -52 -51 -53 -7 0 -14 -6 -17 -12 -3 -7 -27
-24 -53 -38 -27 -14 -53 -31 -57 -37 -5 -8 -29 -13 -57 -13 -39 0 -52 -4 -64
-22 -9 -12 -29 -23 -48 -25 -17 -2 -42 -10 -55 -18 -34 -23 -78 -19 -96 7
l-14 23 -51 -21 c-36 -15 -53 -18 -57 -10 -3 6 -3 -1 -1 -16 4 -33 3 -33 -19
-12 -15 15 -17 15 -28 0 -10 -13 -27 -15 -95 -13 -46 2 -87 8 -90 14 -4 6 -22
18 -40 27 -18 9 -36 24 -39 32 -4 10 -13 14 -28 10 -15 -4 -33 5 -66 34 -24
21 -49 44 -55 49 -7 5 -15 7 -18 3 -4 -3 -5 0 -2 8 3 10 -10 22 -39 37 -25 12
-45 20 -45 17 0 -9 63 -74 72 -74 5 0 22 -15 39 -34 16 -19 51 -47 77 -62 26
-14 61 -39 77 -54 17 -15 41 -31 55 -35 13 -4 36 -16 50 -26 53 -40 261 -62
365 -39 22 4 69 20 105 35 36 14 105 42 154 62 90 38 171 88 212 133 67 74
115 137 133 174 10 22 38 58 60 79 23 21 41 45 41 52 0 19 47 105 71 131 10
11 17 23 13 26 -3 4 2 18 11 32 10 15 15 35 12 48 -4 12 -2 27 3 33 11 13 -25
63 -36 52 -4 -3 1 -13 10 -22 22 -22 20 -34 -5 -28 -11 3 -24 15 -29 27 -4 12
-15 28 -24 35 -22 19 -20 41 4 41 11 0 20 -6 20 -14 0 -7 11 -16 25 -18 29 -6
30 -6 9 33 -8 17 -14 40 -14 52 5 62 1 77 -25 77 -14 0 -25 6 -25 13 0 8 -4 7
-10 -3 -5 -8 -10 -11 -10 -7 0 11 -63 -24 -73 -40 -12 -19 -35 -16 -39 4 -3
16 -6 15 -16 -4 -11 -19 -10 -23 3 -23 8 0 15 -5 15 -10 0 -7 -15 -8 -42 -4
-24 4 -60 8 -81 8 -21 1 -42 7 -46 15 -5 7 -14 10 -20 7 -6 -4 -11 -2 -11 4 0
6 -12 22 -26 35 -17 16 -22 25 -13 25 10 1 9 4 -3 11 -10 5 -18 18 -18 27 0
15 16 20 95 30 194 26 282 113 322 315 30 153 32 159 56 155 30 -4 36 -43 35
-218 -1 -98 3 -153 11 -169 l13 -23 19 20 c10 11 27 23 38 27 23 7 33 42 25
83 -4 21 -2 31 10 35 9 4 16 16 16 27 0 11 7 23 15 27 13 4 15 19 12 74 -4 59
-10 74 -37 109 l-33 41 19 26 c11 15 24 26 29 25 4 0 18 -23 30 -51 27 -65 35
-72 35 -30 1 19 2 60 5 92 3 50 1 57 -15 57 -10 0 -22 -5 -25 -10 -8 -12 -16
-12 -34 -1 -11 7 -11 17 2 62 9 30 16 65 15 79 0 46 22 255 34 310 16 79 16
88 7 270 -5 91 -10 242 -11 335 l-3 171 -35 58 c-19 32 -58 79 -86 105 -28 26
-57 58 -64 71 -30 56 -104 110 -151 110 -12 0 -51 20 -88 44 -77 51 -176 94
-243 106 -27 5 -52 11 -58 15 -5 3 -139 6 -297 6 -158 0 -328 4 -378 7 -49 4
-126 3 -170 -1z m608 -975 c10 -9 28 -11 50 -7 24 5 47 1 71 -10 20 -10 43
-14 52 -11 9 3 30 0 47 -8 18 -8 47 -17 64 -21 18 -4 36 -12 40 -18 5 -7 22
-18 38 -26 17 -7 38 -17 47 -22 10 -5 26 -9 35 -9 32 -1 53 -27 68 -84 8 -31
15 -66 15 -76 0 -11 7 -40 16 -66 9 -25 16 -66 17 -90 1 -24 4 -44 7 -44 3 0
13 -18 24 -40 10 -21 25 -41 32 -44 8 -3 14 -14 14 -23 0 -10 8 -26 18 -35 62
-61 87 -100 78 -125 -6 -15 -47 -15 -203 3 -53 6 -98 34 -54 34 11 0 21 4 21
10 0 5 -7 7 -15 4 -8 -4 -26 1 -39 10 -13 8 -37 15 -53 14 -15 0 -46 2 -68 4
-57 7 -238 -27 -293 -54 -26 -12 -50 -22 -54 -20 -5 1 -8 -3 -8 -9 0 -5 -10
-9 -22 -7 -15 2 -22 -2 -20 -10 1 -7 -3 -12 -10 -11 -7 1 -20 0 -28 -3 -67
-24 -104 -28 -184 -18 -46 6 -102 18 -123 27 -83 37 -302 44 -398 14 -33 -10
-87 -21 -120 -25 -33 -3 -73 -9 -90 -13 -48 -12 -111 -9 -129 6 -24 20 -19 61
14 111 16 25 30 49 30 54 0 4 11 21 24 36 20 25 23 34 16 72 -8 43 -1 58 28
58 8 0 11 7 7 19 -7 23 18 45 42 37 24 -7 47 8 40 27 -7 18 14 29 33 17 7 -4
26 -1 44 8 58 29 66 32 76 32 21 0 61 54 59 80 -2 44 0 49 46 76 35 20 44 30
40 45 -7 21 5 25 21 9 7 -7 20 -6 40 5 16 8 34 15 40 15 6 0 23 9 38 21 20 16
25 26 20 45 -5 20 -3 24 17 24 107 -2 216 3 224 10 25 20 234 22 258 2z m-983
-371 c0 -6 -4 -13 -10 -16 -5 -3 -10 1 -10 9 0 9 5 16 10 16 6 0 10 -4 10 -9z
m1786 -446 c9 -28 8 -35 -2 -35 -8 0 -14 6 -14 13 0 6 -3 22 -6 35 -10 36 10
25 22 -13z m-241 -10 c16 -7 38 -22 49 -33 18 -21 18 -22 -5 -31 -13 -5 -28
-7 -32 -4 -4 3 -15 -1 -24 -9 -13 -10 -17 -10 -20 0 -3 6 -16 12 -30 12 -13 0
-31 7 -39 15 -12 12 -42 15 -135 15 -118 0 -145 9 -96 30 65 30 268 33 332 5z
m-1774 -17 c-1 -5 -1 -19 -1 -33 0 -16 -6 -25 -15 -25 -11 0 -15 11 -15 36 0
27 4 35 16 32 8 -2 15 -6 15 -10z m485 4 c55 -2 62 -5 68 -24 7 -29 -13 -49
-50 -52 -77 -7 -145 -19 -150 -27 -3 -5 -12 -9 -20 -9 -23 0 -74 -42 -74 -61
0 -25 12 -30 46 -20 16 4 58 4 94 -1 36 -5 94 -9 130 -9 36 0 59 -2 51 -6 -10
-4 -11 -7 -1 -13 33 -20 -59 -69 -127 -67 -34 0 -51 -8 -39 -20 3 -4 51 -7
106 -6 80 0 104 4 127 20 15 10 47 28 70 38 23 11 44 28 47 38 2 9 11 17 20
17 9 0 16 6 16 14 0 8 7 16 15 20 22 8 20 72 -2 86 -16 9 -15 10 7 8 19 -2 26
-10 28 -30 2 -16 8 -28 13 -28 16 0 10 -49 -8 -68 -31 -31 -70 -154 -44 -138
6 4 11 16 11 27 0 10 5 19 10 19 28 0 -16 -98 -68 -153 -53 -55 -124 -78 -257
-84 -143 -7 -209 6 -264 54 -53 45 -75 88 -96 189 -20 91 -15 142 15 169 11
10 20 29 20 41 0 44 97 83 195 79 28 -1 78 -2 111 -3z m-426 -6 c0 -2 -7 -6
-15 -10 -8 -3 -15 -1 -15 4 0 6 7 10 15 10 8 0 15 -2 15 -4z m1314 -17 c-3 -5
-10 -7 -15 -3 -5 3 -7 10 -3 15 3 5 10 7 15 3 5 -3 7 -10 3 -15z m-734 0 c0
-19 -20 -49 -33 -49 -21 0 -35 20 -30 41 4 13 14 19 34 19 16 0 29 -5 29 -11z
m665 1 c-3 -5 -10 -10 -16 -10 -5 0 -9 5 -9 10 0 6 7 10 16 10 8 0 12 -4 9
-10z m569 -155 c-2 -154 -62 -264 -167 -303 -68 -26 -233 -37 -307 -21 -61 13
-124 46 -160 84 -18 19 -26 42 -31 93 -8 73 -6 80 13 64 12 -10 57 -16 191
-29 31 -2 57 -9 57 -14 0 -6 5 -7 11 -3 6 4 36 8 66 10 31 3 60 7 67 11 6 4
17 8 24 9 8 2 15 4 15 6 1 2 8 13 15 26 16 29 7 45 -18 32 -10 -5 -32 -10 -49
-10 -16 0 -33 -4 -36 -10 -8 -12 -95 -13 -114 -1 -12 8 -12 12 -2 25 15 18 41
21 41 6 0 -17 29 -11 61 13 26 19 42 22 107 20 99 -3 142 4 142 22 0 8 7 15
16 15 8 0 20 14 26 31 10 29 12 30 22 13 5 -11 10 -50 10 -89z m36 -540 c0
-17 -2 -18 -25 -9 -13 5 -14 8 -3 15 19 13 28 11 28 -6z m-480 -145 c0 -5 -7
-10 -16 -10 -8 0 -12 5 -9 10 3 6 10 10 16 10 5 0 9 -4 9 -10z m306 -38 c6 -4
14 -15 17 -26 4 -11 13 -16 22 -12 18 7 19 -13 2 -35 -12 -15 -15 -15 -37 5
-14 11 -26 33 -28 49 -2 27 4 33 24 19z"/>
<path d="M2250 2455 c7 -8 16 -15 21 -15 5 0 9 7 9 15 0 9 -9 15 -21 15 -18 0
-19 -2 -9 -15z"/>
<path d="M2110 1289 c0 -5 12 -14 26 -19 34 -13 39 -13 25 4 -14 17 -51 28
-51 15z"/>
<path d="M644 1669 c9 -54 17 -68 27 -43 14 34 9 59 -12 73 -21 13 -22 12 -15
-30z"/>
<path d="M2833 1183 c-7 -29 -8 -54 -2 -63 6 -11 8 -3 9 24 0 22 3 36 7 33 9
-9 43 22 43 40 0 7 -10 13 -23 13 -20 0 -25 -8 -34 -47z"/>
<path d="M1656 1021 c-4 -5 -2 -12 3 -15 5 -4 12 -2 15 3 4 5 2 12 -3 15 -5 4
-12 2 -15 -3z"/>
<path d="M1967 673 c-4 -3 -7 -11 -7 -17 0 -6 5 -5 12 2 6 6 9 14 7 17 -3 3
-9 2 -12 -2z"/>
<path d="M2095 641 c-7 -12 22 -41 39 -41 8 0 19 7 26 15 7 8 19 15 26 15 8 0
14 5 14 10 0 14 -54 12 -68 -2 -9 -9 -12 -9 -12 0 0 14 -16 16 -25 3z"/>
<path d="M2360 610 c0 -11 7 -20 15 -20 8 0 19 9 25 20 9 18 8 20 -15 20 -18
0 -25 -5 -25 -20z"/>
<path d="M2055 594 c-20 -31 -17 -37 15 -21 29 15 36 33 16 40 -9 4 -21 -4
-31 -19z"/>
<path d="M1880 533 c0 -3 7 -15 17 -25 15 -17 15 -18 -5 -18 -25 0 -38 -16
-19 -23 14 -5 67 2 67 10 0 16 -33 63 -45 63 -8 0 -15 -3 -15 -7z"/>
<path d="M1990 500 c0 -5 4 -10 9 -10 6 0 13 5 16 10 3 6 -1 10 -9 10 -9 0
-16 -4 -16 -10z"/>
<path d="M1822 488 c2 -6 10 -14 16 -16 7 -2 10 2 6 12 -7 18 -28 22 -22 4z"/>
<path d="M1961 474 c0 -11 3 -14 6 -6 3 7 2 16 -1 19 -3 4 -6 -2 -5 -13z"/>
</g>
</svg>
